<?xml version="1.0" encoding="utf-8"?>
<!-- Generator: Adobe Illustrator 24.0.0, SVG Export Plug-In . SVG Version: 6.00 Build 0)  -->
<svg version="1.0" id="Layer_1" xmlns="http://www.w3.org/2000/svg" xmlns:xlink="http://www.w3.org/1999/xlink" x="0px" y="0px"
	 viewBox="0 0 400 234.8" style="enable-background:new 0 0 400 234.8;" xml:space="preserve">
<style type="text/css">
	.st0{fill:url(#SVGID_1_);}
	.st1{fill:url(#SVGID_2_);}
	.st2{fill:url(#SVGID_3_);}
	.st3{fill:url(#SVGID_4_);}
</style>
<g>
	
		<radialGradient id="SVGID_1_" cx="201.696" cy="-8.9942" r="243.0374" gradientTransform="matrix(1 0 0 -1 0 235.8898)" gradientUnits="userSpaceOnUse">
		<stop  offset="0.1361" style="stop-color:#94C0B9"/>
		<stop  offset="1" style="stop-color:#6BB1A5"/>
	</radialGradient>
	<rect y="-33.4" class="st0" width="403.4" height="556.6"/>
</g>
<radialGradient id="SVGID_2_" cx="269.009" cy="15.5683" r="164.1973" gradientTransform="matrix(1 0 0 -1 0 235.8898)" gradientUnits="userSpaceOnUse">
	<stop  offset="0.1361" style="stop-color:#94C0B9"/>
	<stop  offset="1" style="stop-color:#6BB1A5"/>
</radialGradient>
<path class="st1" d="M324,80.2c29.5,0,56.8,9.1,79.4,24.7V48.4c-24.1-11.2-51-17.4-79.4-17.4c-104.6,0-189.4,84.8-189.4,189.4
	c0,104.6,84.8,189.4,189.4,189.4c28.4,0,55.3-6.2,79.4-17.4v-56.5c-22.6,15.6-49.9,24.7-79.4,24.7c-77.4,0-140.1-62.7-140.1-140.1
	S246.6,80.2,324,80.2z"/>
<radialGradient id="SVGID_3_" cx="308.194" cy="15.5693" r="103.4037" gradientTransform="matrix(1 0 0 -1 0 235.8898)" gradientUnits="userSpaceOnUse">
	<stop  offset="0.1361" style="stop-color:#94C0B9"/>
	<stop  offset="1" style="stop-color:#6BB1A5"/>
</radialGradient>
<path class="st2" d="M403.4,142.8v155.1c-20.1,20.6-48.3,33.4-79.4,33.4c-61.3,0-111-49.7-111-111s49.7-111,111-111
	C355.1,109.3,383.2,122.1,403.4,142.8z"/>
<radialGradient id="SVGID_4_" cx="93.1795" cy="125.3693" r="121.2462" gradientTransform="matrix(1 0 0 -1 0 235.8898)" gradientUnits="userSpaceOnUse">
	<stop  offset="0.1361" style="stop-color:#94C0B9"/>
	<stop  offset="1" style="stop-color:#6BB1A5"/>
</radialGradient>
<path class="st3" d="M37.4,254.5c-1.3-11.2-2-22.6-2-34.1c0-109.6,61-204.9,151-253.7H0v287.9L37.4,254.5L37.4,254.5z"/>
<g id="OBJECTS_1_">
	<defs>
		<rect id="SVGID_5_" x="-1501" y="-1025.5" width="1657.7" height="932.5"/>
	</defs>
	<clipPath id="SVGID_6_">
		<use xlink:href="#SVGID_5_"  style="overflow:visible;"/>
	</clipPath>
</g>
</svg>
