<?xml version="1.0" encoding="utf-8"?>
<!-- Generator: Adobe Illustrator 16.0.0, SVG Export Plug-In . SVG Version: 6.00 Build 0)  -->
<!DOCTYPE svg PUBLIC "-//W3C//DTD SVG 1.1//EN" "http://www.w3.org/Graphics/SVG/1.1/DTD/svg11.dtd">
<svg version="1.1" id="Layer_1" xmlns="http://www.w3.org/2000/svg" xmlns:xlink="http://www.w3.org/1999/xlink" x="0px" y="0px"
	 width="269.564px" height="210.145px" viewBox="0 0 269.564 210.145" enable-background="new 0 0 269.564 210.145"
	 xml:space="preserve">
<g>
	<path fill="#0465AB" d="M64.904,97.392L64.904,97.392c-8.346,0-15.174-6.828-15.174-15.174l0,0c0-8.346,6.828-15.174,15.174-15.174
		l0,0c8.347,0,15.175,6.828,15.175,15.174l0,0C80.078,90.564,73.25,97.392,64.904,97.392z"/>
	<path fill="#0465AB" d="M176.875,62.199c0-24.151-19.762-43.911-43.911-43.911l0,0c-24.15,0-43.91,19.76-43.91,43.911l0,0v64.166
		c0,0,87.813-9.777,87.82-64.159C176.875,62.204,176.875,62.202,176.875,62.199L176.875,62.199z"/>
	<path fill="#0465AB" d="M18.978,147.428c0,0.002,0,0.004,0,0.007l0,0c0,16.802,13.747,30.55,30.55,30.55l0,0
		c16.804,0,30.551-13.748,30.551-30.55l0,0v-44.642C80.078,102.793,18.986,109.594,18.978,147.428z M49.528,155.463
		c-4.415,0-8.027-3.613-8.027-8.028s3.612-8.027,8.027-8.027c4.416,0,8.028,3.612,8.028,8.027S53.944,155.463,49.528,155.463z"/>
	<g>
		<path fill="#0465AB" d="M94.785,158.934c-1.626-0.885-2.9-2.106-3.822-3.667c-0.924-1.56-1.385-3.318-1.385-5.277
			c0-1.96,0.466-3.72,1.397-5.279c0.932-1.561,2.211-2.782,3.838-3.667c1.627-0.884,3.447-1.327,5.465-1.327
			c1.636,0,3.129,0.285,4.479,0.855c1.352,0.571,2.492,1.398,3.424,2.482l-2.396,2.255c-1.445-1.561-3.225-2.34-5.336-2.34
			c-1.369,0-2.597,0.299-3.681,0.898c-1.085,0.6-1.932,1.432-2.54,2.495c-0.608,1.066-0.913,2.273-0.913,3.625
			c0,1.351,0.305,2.56,0.913,3.623c0.608,1.066,1.455,1.897,2.54,2.497c1.084,0.6,2.312,0.898,3.681,0.898
			c2.111,0,3.891-0.789,5.336-2.368l2.396,2.283c-0.932,1.084-2.078,1.911-3.438,2.481s-2.858,0.855-4.493,0.855
			C98.233,160.26,96.412,159.818,94.785,158.934z"/>
		<path fill="#0465AB" d="M115.143,158.934c-1.636-0.885-2.919-2.11-3.852-3.682c-0.935-1.569-1.398-3.324-1.398-5.265
			s0.465-3.694,1.398-5.266c0.933-1.568,2.216-2.796,3.852-3.681c1.637-0.884,3.473-1.327,5.507-1.327
			c2.037,0,3.872,0.443,5.509,1.327c1.637,0.885,2.92,2.106,3.853,3.667c0.932,1.561,1.398,3.319,1.398,5.278
			s-0.468,3.72-1.398,5.278c-0.933,1.561-2.216,2.782-3.853,3.667s-3.472,1.326-5.509,1.326
			C118.615,160.26,116.78,159.818,115.143,158.934z M124.247,156.108c1.064-0.6,1.9-1.437,2.511-2.511s0.913-2.278,0.913-3.609
			s-0.304-2.534-0.913-3.609c-0.609-1.074-1.445-1.911-2.511-2.511c-1.066-0.601-2.266-0.898-3.598-0.898
			c-1.33,0-2.528,0.299-3.594,0.898s-1.902,1.437-2.512,2.511c-0.609,1.075-0.912,2.278-0.912,3.609s0.303,2.535,0.912,3.609
			c0.608,1.074,1.444,1.911,2.512,2.511c1.064,0.6,2.264,0.898,3.594,0.898C121.982,157.007,123.181,156.707,124.247,156.108z"/>
		<path fill="#0465AB" d="M153.694,159.975l-0.027-13.24l-6.563,10.957h-1.656l-6.563-10.784v13.067h-3.538V140h3.054l7.933,13.24
			l7.79-13.24h3.054l0.028,19.975H153.694z"/>
		<path fill="#0465AB" d="M175.336,140.857c1.284,0.57,2.269,1.39,2.953,2.453c0.684,1.065,1.026,2.33,1.026,3.795
			c0,1.446-0.344,2.707-1.026,3.781c-0.686,1.074-1.669,1.897-2.953,2.468c-1.284,0.571-2.792,0.856-4.522,0.856h-4.509v5.764h-3.71
			V140h8.219C172.544,140,174.052,140.286,175.336,140.857z M174.323,150.045c0.836-0.687,1.256-1.664,1.256-2.939
			c0-1.272-0.42-2.254-1.256-2.938c-0.838-0.685-2.063-1.026-3.683-1.026h-4.336v7.934h4.336
			C172.259,151.073,173.486,150.729,174.323,150.045z"/>
		<path fill="#0465AB" d="M194.982,155.352h-9.985l-1.971,4.623h-3.822L188.19,140h3.653l9.017,19.975h-3.88L194.982,155.352z
			 M193.755,152.441l-3.768-8.73l-3.736,8.73H193.755z"/>
		<path fill="#0465AB" d="M221.148,140v19.975h-3.053L207.08,146.45v13.524H203.4V140h3.054l11.014,13.524V140H221.148z"/>
		<path fill="#0465AB" d="M235.129,152.927v7.048h-3.709v-6.99L223.574,140h3.966l5.85,9.729l5.906-9.729h3.651L235.129,152.927z"/>
	</g>
</g>
<g>
	<path fill="#FFFFFF" d="M149.804,43.911v15.697h15.049v6.769h-15.049v15.841h-7.057V66.377h-15.05v-6.769h15.05V43.911H149.804z"/>
</g>
</svg>
